<?xml version='1.0' encoding='utf-8'?>
<svg xmlns="http://www.w3.org/2000/svg" viewBox="0 0 1160 300" width="1160" height="300" version="1.1">
  <rect x="0" y="0" width="1160" height="300" rx="30" ry="30" fill="#FFFFFF" />
  <g transform="translate(80, 30)">
    
    <path d="m165.68 27.93c-0.92275 16.391-2.4437 32.881-1.7994 49.01-1.6971-2.9764-5.0188-5.5936-8.0775-5.6231-3.4943-0.0336-6.5531 1.9133-8.6132 4.6755-2.0602 2.7622-3.2539 6.4257-3.2539 10.435s1.1937 8.1524 3.2539 11.088c2.0602 2.9355 5.303 5.0145 8.6132 4.9688 6.0844-0.0842 11.683-7.4222 11.378-13.076-0.86919-16.086-0.46602-27.788 0.67143-39.681l55.024 18.754c0.0318 8.6516-0.0704 17.627-0.64452 26.217-2.1425-3.0698-7.5684-5.7721-10.458-5.8024-3.3702-0.0353-5.6095 1.5068-7.5966 4.4422s-3.1365 6.8287-3.1365 11.09c0 4.2611 1.1494 8.1524 3.1365 11.088 1.9871 2.9354 4.9371 4.9688 8.3074 4.9688 3.3704 0 7.2391-2.0699 9.3504-4.9688 3.6604-5.0259 3.7115-11.985 3.7438-14.735l0.60294-51.321c0.0133-1.1359-0.84386-2.3653-1.9141-2.7461l-56.629-20.15c-1.1175-0.39765-1.915 0.58879-1.9588 1.3672zm758.69 88.19-9.2233 0.0141-0.0532-34.76q-5.0475 4.7343-11.904 7.0096l-0.0128-8.37q3.6087-1.1872 7.838-4.476 4.2291-3.3216 5.7979-7.7223l7.4837-0.0115zm-39.58-29.34-7.3211-4.2912 16.172-27.591q-6.2113 1.4-12.71 6e-3l3.8942-6.6437q3.4157 0.7419 8.3038 0.10651 4.9033-0.66142 8.2002-3.4196l5.9403 3.4819zm66.71-46.36c14.599-3.9711 21.625 11.836 24.481 21.643 3.5848 12.308 3.6448 27.613-9.2101 31.319-13.498 3.8918-21.604-11.755-24.501-21.714-3.5768-12.294-3.6475-27.746 9.2305-31.249zm2.3768 8.2434c-3.2677 0.75844-3.9458 4.0931-3.8931 6.8322 0.0533 2.7682 0.96318 7.1948 2.7178 13.28s3.2999 10.165 4.5412 12.294c1.8643 3.1986 4.0257 4.7934 7.1512 4.0693 3.2853-0.7611 3.9429-4.0838 3.8931-6.8322-0.0497-2.7445-0.95298-7.1594-2.7076-13.245-1.7546-6.0852-3.2981-10.152-4.531-12.259-1.8648-3.1873-4.055-4.8635-7.1716-4.1401zm-96.597-3.4334c11.062 3.422 9.1176 16.517 6.9407 24.025-2.732 9.4227-8.9701 19.336-18.796 16.458-10.317-3.0214-9.1374-16.456-6.9249-24.079 2.7313-9.4104 9.0228-19.423 18.78-16.404zm-1.8452 6.301c-2.4224-0.85019-4.2282 1.0263-5.3176 2.8177-1.1009 1.8104-2.3286 5.0437-3.6907 9.695-1.3622 4.6514-2.0368 7.921-2.1083 9.806-0.10733 2.8312 0.63509 4.7482 2.9516 5.5623 2.4348 0.85564 4.2225-1.0215 5.3176-2.8177 1.0935-1.7937 2.3206-5.0167 3.6828-9.6679 1.3622-4.6514 2.0327-7.9118 2.1004-9.779 0.10241-2.8242-0.62525-4.8055-2.9357-5.6164zm-25.885 10.569-6.2808 1.4712-5.5444-23.67q-2.6882 4.0249-6.9985 6.6614l-1.3351-5.6997q2.2702-1.3806 4.63-4.2911 2.3546-2.9329 2.7258-6.1793l5.0961-1.1937zm-32.21-16.05c7.63 0.11551 8.826 8.7578 8.8398 13.91 0.0174 6.4659-2.0921 13.891-8.8398 13.891-7.0852 0-8.8272-8.7154-8.8398-13.947-0.0155-6.458 2.1093-13.956 8.8398-13.854zm0 4.3271c-1.6896-0.089-2.4842 1.4323-2.8414 2.7671-0.361 1.349-0.53857 3.6214-0.53857 6.8156s0.17887 5.3872 0.48285 6.5928c0.45652 1.8106 1.2812 2.8856 2.8971 2.9714 1.6985 0.0902 2.4815-1.4282 2.8414-2.7671 0.35942-1.337 0.53857-3.6028 0.53857-6.7971s-0.17983-5.3807-0.48286-6.5742c-0.45834-1.8053-1.2856-2.9236-2.8971-3.0085zm-598.17 149.84c-58.498 14.447-53.348-35.112-54.948-55.3-1.5561-19.631-6.6323-72.157-54.099-96.184l-54.566 65.062c35.786 13.284 70.631 28.189 77.601 66.671 6.1459 33.931 28.021 47.384 88.171 48.382z" fill="#d2d2d2" />
    
    <path d="m537.91 40.8v21.637c-9.1588-12.919-22.927-22.039-38.398-22.039h-104.88l-60.176 119.49-48.419-119.35-35.542 0.71256c7.921 79.619-4.8083 132.96-47.283 148.44-10.806 23.985-11.473 39.278-0.99117 40.529 28.036-10.218 45.942-24.189 58.676-40.967 12.985-17.109 18.448-32.786 20.125-48.842l34.959 87.391h27.224l55.592-114.63 1 114.91h37.705v-80.234h43.098c28.446 0 49.736-10.467 54.311-21.338v102.28h126.22v-34.521h-87.112v-44.703h88.917c5.4422 48.26 46.497 85.61 93.032 85.61 22.473 0 43.473-11.097 59.339-27.458 18.725-19.31 27.081-49.245 25.695-70.338l-1.1953-18.189h-73.305v34.387h40.756c-3.4449 22.751-16.589 44.183-47.74 46.213-20.545 1.3388-59.779-10.544-59.779-62.283 0-30.658 30.72-61.988 60.536-62.015 7.8637-7e-3 11.608-10.259 11.739-15.625 0.15709-6.4635-1.0373-15.04-9.7385-19.733-49.886 7.0108-86.269 45.333-93.119 76.328v-0.42383h-97.563v-41.123h87.911v-34.125zm-101.91 32.5h45.543c35.054 0 33.874 39.412 2.3027 39.412h-47.846z" fill="#000000" />
    <path d="m210.56 83.77a9.8659 13.025 0 0 1-9.8659 13.025 9.8659 13.025 0 0 1-9.8659-13.025 9.8659 13.025 0 0 1 9.8659-13.025 9.8659 13.025 0 0 1 9.8659 13.025zm-56.68-19.03a9.8659 14.057 0 0 1-9.8659 14.057 9.8659 14.057 0 0 1-9.8659-14.057 9.8659 14.057 0 0 1 9.8659-14.057 9.8659 14.057 0 0 1 9.8659 14.057z" fill="#FF2A2A" />
    <path d="m155.82 6.93 56.628 20.15-0.20489 17.587-56.628-20.15z" fill="#21CE94" />
    <path d="m203.76 201.79c-80.657 5.3562-72.554-33.308-76.255-69.221-4.3087-41.808-17.323-71.718-48.985-92.775l-54.566 61.653c35.786 13.284 71.923 27.977 77.601 66.671 6.1459 41.885 36.544 46.816 96.694 47.814z" fill="#FFD700" />
  </g>
</svg>